<svg width="267" height="100" viewBox="0 0 267 100" fill="none" xmlns="http://www.w3.org/2000/svg">
<g clip-path="url(#clip0)">
<path d="M170.864 0C170.692 0.538226 170.52 1.06422 170.336 1.59021C169.648 3.53517 168.861 5.40673 167.989 7.21713C166.772 9.71254 165.347 12.1957 163.024 13.8226C160.357 15.682 156.929 16.3547 153.881 17.3456C151.411 18.1529 148.941 18.8991 146.483 19.6208C144.591 20.1835 142.698 20.7339 140.818 21.2844C136.529 22.5443 132.289 23.8165 128.148 25.3089C128.111 25.3211 128.074 25.3333 128.038 25.3456C123.859 26.8502 119.779 28.5872 115.945 30.7645C115.466 31.0459 114.999 31.315 114.52 31.6086C114.065 31.8777 113.61 32.1835 113.18 32.4893C113.094 32.5505 113.021 32.6116 112.935 32.6728C112.148 33.2477 111.398 33.8716 110.686 34.5443C109.113 36.0367 107.761 37.7615 106.655 39.6575C105.77 41.1621 105.008 42.7645 104.517 44.4526C104.295 45.211 104.136 45.9817 103.988 46.7523C103.988 46.7768 104.001 46.7401 104.013 46.7034C104.468 44.9664 105.131 43.2538 106.04 41.6636C107.024 39.9266 108.265 38.3242 109.678 36.9052C111.091 35.474 112.689 34.2263 114.372 33.1254C117.211 31.2661 120.283 29.8349 123.417 28.6606C124.007 28.4404 124.609 28.2202 125.211 28.0122C128.984 26.7278 132.806 25.6758 136.664 24.9174C149.568 22.3976 157.924 19.2783 158.969 19.0336C157.555 20.7339 155.368 23.6086 153.893 25.0887C152.714 26.2752 150.28 28.4648 148.757 29.1988C146.385 30.3486 142.047 29.7737 129.352 31.5963C128.345 31.7431 127.362 31.9388 126.366 32.1468C123.22 32.8073 120.111 33.6881 117.186 34.948C116.72 35.156 116.265 35.3639 115.81 35.5841C114.151 36.3914 112.566 37.3456 111.116 38.4832C109.666 39.6208 108.351 40.9297 107.245 42.422C106.151 43.8777 105.426 45.3823 104.775 47.107C104.762 47.1437 104.799 47.1193 104.824 47.0581C105.574 45.4801 106.79 43.6086 107.908 42.3242C108.031 42.1896 108.154 42.0428 108.277 41.9083C108.523 41.6514 108.769 41.3945 109.027 41.1498C109.948 40.2569 110.968 39.4618 112.062 38.7768C113.61 37.7859 115.282 37.0153 117.002 36.3914C118.932 35.6942 120.898 35.1927 122.901 34.8012C124.474 34.4954 126.059 34.263 127.644 34.0795C130.913 33.7003 134.182 33.529 137.426 33.4067C137.746 33.3945 138.065 33.3823 138.385 33.37C139.614 33.3333 140.83 33.2966 142.047 33.2599C141.039 34.0061 140.068 34.7034 139.147 35.3517C135.767 37.6881 131.736 36.9419 127.853 37.0275C125.629 37.0765 123.417 37.2232 121.242 37.5535C118.219 37.8226 115.392 38.6911 112.91 40.0245C112.885 40.0367 112.849 40.0489 112.824 40.0734C111.3 40.844 109.887 41.8349 108.646 43.0214C108.252 43.4006 107.884 43.792 107.527 44.1957C105.5 46.422 104.025 49.0765 103.288 52C103.214 52.0979 103.165 52 103.153 51.9021C103.14 51.8287 103.103 51.5841 103.103 51.4862C103.042 50.7645 103.103 49.4924 103.153 48.5994C103.165 48.4159 103.177 48.2324 103.189 48.0489C103.214 47.7553 103.226 47.5719 103.226 47.5719C103.275 47.0336 103.337 46.4954 103.423 45.9572C103.792 43.5841 104.468 41.2599 105.475 39.0459C106.434 36.9419 107.699 34.9602 109.236 33.1865C110.01 32.2936 110.833 31.4618 111.73 30.6911C112.173 30.2997 112.64 29.9327 113.119 29.578C113.574 29.2355 114.053 28.893 114.52 28.5627C115.355 27.9755 116.203 27.4128 117.064 26.8624C120.099 24.9419 123.282 23.2661 126.514 21.737C129.475 20.3425 132.474 19.0581 135.472 17.8349C136.677 17.3456 137.893 16.8563 139.098 16.367C143.3 14.6911 147.491 13.052 151.558 11.2783C155.626 9.50459 159.571 7.60856 163.245 5.40673C165.973 3.79205 168.554 1.99388 170.864 0ZM34.0524 0C34.2244 0.538226 34.3965 1.06422 34.5808 1.59021C35.269 3.53517 36.0555 5.40673 36.928 7.21713C38.1446 9.71254 39.5701 12.1957 41.8927 13.8226C44.5593 15.682 47.9879 16.3547 51.0356 17.3456C53.5056 18.1529 55.9757 18.8991 58.4335 19.6208C60.3259 20.1835 62.2184 20.7339 64.0986 21.2844C68.3874 22.5443 72.6271 23.8165 76.7684 25.3089C76.8053 25.3211 76.8422 25.3333 76.879 25.3456C81.0572 26.8502 85.1371 28.5872 88.9713 30.7645C89.4505 31.0459 89.9175 31.315 90.3968 31.6086C90.8515 31.8777 91.3062 32.1835 91.7363 32.4893C91.8223 32.5505 91.896 32.6116 91.982 32.6728C92.7685 33.2477 93.5181 33.8716 94.2309 34.5443C95.8039 36.0367 97.1556 37.7615 98.2616 39.6575C99.1464 41.1621 99.9083 42.7645 100.4 44.4526C100.621 45.2355 100.793 46.0183 100.941 46.8135C100.941 46.8257 100.941 46.8257 100.928 46.8135C100.474 45.0398 99.7978 43.2905 98.8761 41.6636C97.893 39.9266 96.6518 38.3242 95.2386 36.9052C93.8254 35.474 92.2278 34.2263 90.5442 33.1254C87.7055 31.2661 84.6333 29.8349 81.4996 28.6606C80.9098 28.4404 80.3076 28.2202 79.7055 28.0122C75.9328 26.7278 72.111 25.6758 68.2523 24.9174C55.349 22.3976 46.9925 19.2783 45.948 19.0336C47.3612 20.7339 49.5486 23.6086 51.0233 25.0887C52.203 26.2752 54.6362 28.4648 56.16 29.1988C58.5318 30.3486 62.8697 29.7737 75.5641 31.5963C76.5718 31.7431 77.5549 31.9388 78.5503 32.1468C81.6963 32.8073 84.8053 33.6881 87.7301 34.948C88.1971 35.156 88.6518 35.3639 89.1064 35.5841C90.7654 36.3914 92.3507 37.3456 93.8008 38.4832C95.2509 39.6208 96.5658 40.9297 97.6718 42.422C98.7778 43.9144 99.5151 45.4434 100.179 47.2171C100.191 47.2294 100.179 47.2416 100.166 47.2294C99.4291 45.6269 98.1633 43.6697 97.0082 42.3364C96.8853 42.2018 96.7624 42.055 96.6395 41.9205C96.3937 41.6636 96.148 41.4067 95.8899 41.1621C94.9682 40.2691 93.9483 39.474 92.8545 38.789C91.3061 37.7982 89.6349 37.0275 87.9144 36.4037C85.9851 35.7064 84.0189 35.2049 82.0158 34.8135C80.4428 34.5076 78.8575 34.2752 77.2723 34.0917C74.0034 33.7125 70.7346 33.5413 67.4903 33.419C67.1708 33.4067 66.8513 33.3945 66.5318 33.3823C65.3029 33.3456 64.0863 33.3089 62.8697 33.2722C63.8774 34.0183 64.8482 34.7156 65.7699 35.3639C69.1493 37.7003 73.1801 36.9541 77.0634 37.0398C79.2876 37.0887 81.4996 37.2355 83.6748 37.5657C86.6978 37.8349 89.5243 38.7034 92.0066 40.0367C92.0312 40.0489 92.0681 40.0612 92.0926 40.0856C93.6165 40.8563 95.0297 41.8471 96.2708 43.0336C96.6641 43.4128 97.0328 43.8043 97.3891 44.208C99.4168 46.4342 100.891 49.0887 101.629 52.0122C101.703 52.1101 101.752 52.0122 101.764 51.9144C101.776 51.841 101.813 51.5963 101.813 51.4985C101.875 50.7768 101.813 49.5046 101.764 48.6116C101.752 48.4281 101.739 48.2446 101.727 48.0612C101.703 47.7676 101.69 47.5841 101.69 47.5841C101.641 47.0459 101.58 46.5076 101.494 45.9694C101.125 43.5963 100.449 41.2722 99.4414 39.0581C98.4828 36.9541 97.2171 34.9725 95.681 33.1988C94.9068 32.3058 94.0834 31.474 93.1863 30.7034C92.7439 30.3119 92.277 29.945 91.7977 29.5902C91.343 29.2477 90.8638 28.9052 90.3968 28.5749C89.5611 27.9878 88.7132 27.4251 87.853 26.8746C84.8176 24.9541 81.6348 23.2783 78.4029 21.7492C75.4412 20.3547 72.4428 19.0703 69.4443 17.8471C68.24 17.3578 67.0234 16.8685 65.8191 16.3792C61.6163 14.7034 57.4258 13.0642 53.3582 11.2905C49.2905 9.51682 45.3458 7.62079 41.6715 5.41896C38.931 3.79205 36.3627 1.99388 34.0524 0Z" fill="url(#paint0_linear)"/>
<path d="M11.9693 85.4679C9.58531 79.9022 7.63138 75.1805 6.09527 71.3028C4.55917 67.4251 3.34257 64.2202 2.44548 61.6759C1.5484 59.1315 0.909375 57.1744 0.552999 55.7921C0.184333 54.4098 0 53.4312 0 52.8441C0 51.8288 0.344088 50.9358 1.01998 50.1529C1.69586 49.3823 2.74042 48.9909 4.15363 48.9909C5.22276 48.9909 6.05841 49.0887 6.67285 49.2844C7.275 49.4802 7.68054 49.627 7.87716 49.7248C8.46702 51.8533 9.11833 54.1163 9.84337 56.5138C10.5684 58.9114 11.3303 61.2967 12.1045 63.6698C12.8787 66.0429 13.6529 68.3059 14.4025 70.4588C15.1522 72.6117 15.828 74.5444 16.4056 76.2325C16.9463 74.7279 17.5116 73.0153 18.1261 71.0704C18.7282 69.1377 19.3672 67.1315 20.0185 65.0765C20.6699 63.0215 21.3212 60.9297 21.9479 58.8257C22.5746 56.7218 23.1645 54.7156 23.7052 52.8318C24.0984 51.5719 24.6392 50.6178 25.3519 49.9572C26.0524 49.2967 27.1829 48.9786 28.7436 48.9786C29.7145 48.9786 30.587 49.1132 31.3735 49.3823C32.1476 49.6514 32.6392 49.8349 32.8358 49.9328C33.4626 52.1101 34.1507 54.3976 34.8758 56.7952C35.6008 59.1927 36.3382 61.5536 37.0632 63.8777C37.7882 66.2019 38.5133 68.4282 39.2137 70.5566C39.9142 72.6851 40.5655 74.5811 41.1431 76.2202C42.4088 72.8808 43.7115 69.2233 45.0509 65.2477C46.3904 61.2722 47.6193 57.3089 48.7376 53.3334C49.18 51.8288 49.7453 50.7279 50.458 50.0306C51.1585 49.3334 52.2522 48.9786 53.7023 48.9786C55.0172 48.9786 56.0863 49.1988 56.9097 49.627C57.7331 50.0673 58.2 50.3242 58.2983 50.4221C57.9051 52.0245 57.2292 54.2263 56.2584 57.0276C55.2876 59.841 54.1939 62.8747 52.9773 66.1407C51.7607 69.4068 50.4703 72.7462 49.1063 76.1713C47.7422 79.5841 46.4519 82.6789 45.2353 85.4312H36.6208C36.2275 84.4159 35.7114 82.9236 35.0478 80.9664C34.3965 79.0092 33.6715 76.8563 32.8973 74.5322C32.1231 72.208 31.3489 69.8227 30.5993 67.3762C29.8496 64.9297 29.1492 62.6912 28.5224 60.6606C27.8834 62.6912 27.1952 64.9419 26.4456 67.3762C25.696 69.8227 24.9341 72.208 24.1845 74.5322C23.4348 76.8563 22.7344 78.997 22.1077 80.9664C21.4686 82.9236 20.9648 84.4159 20.5715 85.4312H11.9693V85.4679Z" fill="white"/>
<path d="M65.1801 76.3914C65.5242 76.6361 66.1263 76.9541 66.9988 77.3333C67.8713 77.7247 68.9528 78.1162 70.2431 78.5321C71.5334 78.948 73.0081 79.2905 74.6548 79.5841C76.3138 79.8776 78.108 80.0244 80.0619 80.0244C82.5934 80.0244 84.6579 79.6942 86.2678 79.0458C87.8776 78.3975 88.6764 77.2599 88.6764 75.6697C88.6764 74.3119 88.1602 73.2844 87.1403 72.5871C86.1203 71.8899 84.2893 71.3884 81.6717 71.0948L75.982 70.4465C74.0404 70.2507 72.2462 69.896 70.6118 69.3945C68.9773 68.8807 67.5887 68.1957 66.409 67.3272C65.2415 66.4587 64.3322 65.3822 63.6686 64.0978C63.0172 62.8134 62.6854 61.2721 62.6854 59.4862C62.6854 57.9327 62.9927 56.477 63.5948 55.0948C64.197 53.7125 65.1678 52.4893 66.4827 51.4251C67.7976 50.3608 69.5058 49.529 71.6317 48.9174C73.7454 48.318 76.3138 48.0122 79.3368 48.0122C84.3999 48.0122 88.32 48.5749 91.1219 49.688C93.9237 50.8012 95.3246 52.2569 95.3246 54.0428C95.3246 54.6299 95.2141 55.1315 94.9929 55.5718C94.7717 56.0122 94.5259 56.3914 94.2678 56.7339C93.9974 57.0764 93.7148 57.3455 93.4322 57.5657C93.1372 57.7859 92.916 57.9205 92.7809 57.9694C92.5842 57.7737 92.1664 57.4679 91.5028 57.0642C90.8515 56.6483 89.9544 56.2446 88.8361 55.8287C87.7178 55.4128 86.3784 55.0581 84.8177 54.74C83.257 54.422 81.4628 54.263 79.4229 54.263C73.7823 54.263 70.9558 55.7431 70.9558 58.6911C70.9558 59.951 71.4966 60.9052 72.5657 61.5657C73.6348 62.214 75.1709 62.6666 77.1617 62.9113L84.6088 63.8532C88.6518 64.3914 91.7855 65.4923 94.022 67.1559C96.2586 68.8318 97.3769 71.2905 97.3769 74.5321C97.3769 78.1651 95.9268 81.0764 93.0389 83.2538C90.1388 85.4312 85.9728 86.5199 80.5166 86.5199C77.8868 86.5199 75.5027 86.3241 73.3645 85.9449C71.2262 85.5535 69.3583 85.1131 67.7853 84.5994C66.2001 84.0856 64.922 83.5963 63.9512 83.107C62.9804 82.6177 62.3414 82.263 62.0587 82.0183L65.1801 76.3914Z" fill="white"/>
<path d="M104.885 68.9052C104.885 65.5168 105.377 62.5199 106.348 59.9388C107.319 57.3456 108.683 55.1682 110.44 53.3945C112.197 51.633 114.311 50.2874 116.793 49.3578C119.276 48.4404 122.028 47.9755 125.039 47.9755C127.816 47.9755 130.372 48.4648 132.707 49.4312C135.042 50.3975 137.07 51.7309 138.803 53.4312C140.523 55.1315 141.875 57.1621 142.858 59.5352C143.829 61.9082 144.32 64.4771 144.32 67.2416C144.32 70.055 143.841 72.6361 142.895 74.9847C141.949 77.3333 140.634 79.3517 138.95 81.052C137.267 82.7523 135.3 84.0611 133.039 85.0153C130.778 85.9572 128.308 86.4342 125.629 86.4342C122.852 86.4342 120.394 85.896 118.256 84.8318C116.117 83.7676 114.434 82.4587 113.217 80.9052V100.012H104.898V68.9052H104.885ZM124.437 79.0703C126.096 79.0703 127.607 78.7645 128.996 78.1651C130.385 77.5657 131.577 76.7217 132.572 75.6575C133.568 74.5933 134.329 73.3333 134.87 71.8777C135.411 70.422 135.669 68.8563 135.669 67.156C135.669 65.5046 135.399 63.9755 134.87 62.5443C134.329 61.1131 133.568 59.8777 132.572 58.8379C131.577 57.7982 130.385 56.9786 128.996 56.367C127.607 55.7553 126.084 55.4618 124.437 55.4618C122.778 55.4618 121.266 55.7553 119.878 56.3303C118.489 56.9174 117.297 57.7125 116.302 58.7278C115.306 59.7431 114.52 60.9663 113.967 62.3975C113.402 63.8287 113.131 65.4067 113.131 67.156C113.131 68.8563 113.414 70.422 113.967 71.8777C114.52 73.3333 115.294 74.5933 116.265 75.6575C117.236 76.7217 118.415 77.5535 119.804 78.1651C121.193 78.7767 122.741 79.0703 124.437 79.0703Z" fill="white"/>
<path d="M201.599 57.9449C201.058 56.6728 200.603 55.5963 200.259 54.7034C199.903 53.8226 199.633 53.0887 199.424 52.5015C199.215 51.9144 199.067 51.474 198.993 51.156C198.907 50.8379 198.871 50.6177 198.871 50.4832C198.871 50.2508 198.944 50.0428 199.104 49.8716C199.264 49.7003 199.497 49.6024 199.817 49.6024C200.063 49.6024 200.259 49.6269 200.394 49.6636C200.53 49.7125 200.628 49.737 200.665 49.7615C200.8 50.2508 200.947 50.7645 201.119 51.315C201.292 51.8654 201.464 52.4037 201.636 52.9541C201.808 53.4924 201.992 54.0183 202.164 54.5076C202.336 54.9969 202.484 55.4373 202.619 55.8287C202.742 55.4862 202.877 55.0948 203.012 54.6544C203.147 54.2141 203.295 53.7492 203.442 53.2844C203.59 52.8196 203.737 52.3425 203.884 51.8532C204.032 51.3639 204.167 50.9113 204.29 50.4832C204.376 50.1896 204.499 49.9816 204.671 49.8226C204.831 49.6758 205.089 49.6024 205.445 49.6024C205.666 49.6024 205.863 49.6391 206.047 49.7003C206.219 49.7615 206.342 49.7982 206.379 49.8226C206.527 50.3242 206.674 50.8501 206.846 51.3884C207.018 51.9388 207.178 52.4771 207.35 53.0031C207.522 53.5413 207.682 54.0428 207.841 54.5321C208.001 55.0214 208.149 55.4495 208.284 55.8287C208.579 55.0581 208.874 54.2263 209.181 53.3211C209.488 52.4159 209.771 51.4985 210.029 50.5933C210.127 50.2508 210.262 49.9939 210.422 49.8349C210.582 49.6758 210.828 49.5902 211.159 49.5902C211.454 49.5902 211.7 49.6391 211.897 49.737C212.081 49.8349 212.192 49.896 212.216 49.9205C212.13 50.2875 211.971 50.789 211.749 51.4373C211.528 52.0856 211.282 52.7706 211 53.529C210.717 54.2752 210.422 55.0459 210.115 55.8287C209.808 56.6116 209.513 57.3211 209.23 57.9449H207.264C207.178 57.7125 207.055 57.37 206.908 56.9174C206.76 56.4648 206.588 55.9755 206.416 55.4495C206.244 54.9235 206.06 54.3731 205.888 53.8104C205.715 53.2477 205.556 52.7339 205.408 52.2691C205.261 52.7339 205.101 53.2477 204.929 53.8104C204.757 54.3731 204.585 54.9113 204.413 55.4495C204.241 55.9878 204.081 56.4771 203.934 56.9174C203.786 57.37 203.676 57.7125 203.577 57.9449H201.599Z" fill="white"/>
<path d="M214.33 45.8593C214.649 45.8593 214.92 45.9694 215.153 46.1896C215.375 46.4098 215.485 46.6789 215.485 47.0092C215.485 47.3394 215.375 47.5963 215.153 47.8287C214.932 48.0489 214.662 48.159 214.33 48.159C214.01 48.159 213.74 48.0489 213.507 47.8287C213.285 47.6085 213.175 47.3394 213.175 47.0092C213.175 46.6789 213.285 46.422 213.507 46.1896C213.74 45.9694 214.01 45.8593 214.33 45.8593ZM213.384 50.4832C213.384 50.1774 213.47 49.9449 213.654 49.8104C213.826 49.6758 214.084 49.6024 214.404 49.6024C214.6 49.6024 214.785 49.6269 214.957 49.6758C215.129 49.7248 215.239 49.7615 215.288 49.7859V57.9449H213.384V50.4832Z" fill="white"/>
<path d="M217.537 55.8654C217.611 55.9266 217.759 55.9877 217.955 56.0856C218.152 56.1712 218.398 56.2691 218.693 56.3547C218.987 56.4526 219.319 56.526 219.7 56.5994C220.081 56.6605 220.487 56.6972 220.941 56.6972C221.519 56.6972 221.998 56.6238 222.367 56.477C222.736 56.3302 222.92 56.0734 222.92 55.7064C222.92 55.4006 222.809 55.1559 222.564 54.9969C222.33 54.8379 221.912 54.7278 221.31 54.6544L220.007 54.5076C219.565 54.4587 219.147 54.3853 218.779 54.263C218.41 54.1529 218.09 53.9939 217.82 53.7859C217.55 53.5902 217.341 53.3455 217.193 53.052C217.046 52.7584 216.972 52.4036 216.972 52C216.972 51.6452 217.046 51.3149 217.181 50.9969C217.316 50.6789 217.537 50.3975 217.845 50.1529C218.14 49.9082 218.533 49.7125 219.024 49.5779C219.504 49.4434 220.093 49.37 220.782 49.37C221.937 49.37 222.834 49.4923 223.473 49.7492C224.112 50.0061 224.431 50.3364 224.431 50.74C224.431 50.8746 224.407 50.9847 224.358 51.0948C224.309 51.1926 224.247 51.2783 224.186 51.3639C224.124 51.4373 224.063 51.5107 223.989 51.5596C223.928 51.6085 223.878 51.6452 223.842 51.6575C223.792 51.6085 223.694 51.5474 223.547 51.4495C223.399 51.3516 223.19 51.266 222.932 51.1682C222.674 51.0703 222.367 50.9969 222.011 50.9235C221.654 50.8501 221.249 50.8134 220.769 50.8134C219.479 50.8134 218.828 51.1559 218.828 51.8287C218.828 52.1223 218.951 52.3302 219.196 52.4893C219.442 52.6361 219.786 52.7461 220.253 52.7951L221.961 53.0153C222.883 53.1376 223.608 53.3945 224.112 53.7737C224.616 54.1529 224.874 54.7156 224.874 55.4617C224.874 56.2935 224.542 56.9541 223.878 57.4556C223.215 57.9572 222.256 58.2018 221.015 58.2018C220.413 58.2018 219.872 58.1529 219.381 58.0672C218.889 57.9816 218.459 57.8715 218.103 57.7614C217.746 57.6513 217.451 57.529 217.23 57.4189C217.009 57.3088 216.861 57.2232 216.8 57.1743L217.537 55.8654Z" fill="white"/>
<path d="M233.955 57.3333C233.869 57.3945 233.722 57.4679 233.537 57.5657C233.353 57.6636 233.107 57.7615 232.825 57.8471C232.542 57.9327 232.21 58.0183 231.842 58.0795C231.473 58.1407 231.055 58.1774 230.613 58.1774C229.986 58.1774 229.408 58.0795 228.868 57.896C228.327 57.7125 227.86 57.4312 227.454 57.052C227.049 56.685 226.729 56.2202 226.496 55.6942C226.262 55.156 226.14 54.5321 226.14 53.8349C226.14 53.1743 226.25 52.5627 226.484 52.0122C226.717 51.4618 227.024 50.9969 227.43 50.5933C227.835 50.2018 228.315 49.896 228.868 49.6758C229.421 49.4557 230.023 49.3578 230.674 49.3578C231.252 49.3578 231.768 49.4312 232.21 49.578C232.653 49.7248 233.034 49.9327 233.341 50.1774C233.648 50.422 233.882 50.7156 234.029 51.0459C234.189 51.3761 234.262 51.7309 234.262 52.1101C234.262 52.5015 234.189 52.844 234.041 53.1621C233.894 53.4801 233.636 53.7492 233.267 53.9816C232.898 54.2141 232.407 54.3853 231.78 54.5199C231.153 54.6422 230.367 54.7156 229.408 54.7156C229.187 54.7156 228.978 54.7156 228.782 54.7034C228.585 54.7034 228.376 54.6911 228.155 54.6789C228.241 55.2416 228.524 55.7064 228.978 56.0489C229.445 56.4037 230.097 56.5749 230.957 56.5749C231.252 56.5749 231.51 56.5505 231.756 56.5138C232.001 56.4648 232.223 56.4159 232.419 56.3425C232.616 56.2813 232.775 56.2079 232.923 56.1468C233.058 56.0856 233.169 56.0367 233.23 56L233.955 57.3333ZM228.093 53.3945C228.352 53.4067 228.597 53.4067 228.831 53.4067C229.064 53.4067 229.298 53.4067 229.531 53.4067C230.146 53.4067 230.637 53.37 231.018 53.2966C231.399 53.2232 231.694 53.1131 231.903 53.0031C232.112 52.8807 232.259 52.7462 232.321 52.5872C232.382 52.4281 232.419 52.2691 232.419 52.1101C232.419 51.6942 232.247 51.3761 231.915 51.1682C231.571 50.9602 231.153 50.8501 230.65 50.8501C230.232 50.8501 229.875 50.9235 229.568 51.0703C229.261 51.2171 228.991 51.4006 228.782 51.6453C228.573 51.8899 228.401 52.159 228.29 52.4648C228.167 52.7584 228.106 53.0642 228.093 53.3945Z" fill="white"/>
<path d="M235.688 52.5749C235.688 51.5596 236.008 50.7645 236.634 50.2018C237.261 49.6391 238.133 49.3578 239.252 49.3578C239.952 49.3578 240.53 49.4556 240.96 49.6514C241.402 49.8471 241.624 50.1407 241.624 50.5443C241.624 50.7278 241.574 50.9113 241.464 51.0948C241.353 51.266 241.267 51.3884 241.206 51.4251C241.021 51.3394 240.788 51.2538 240.505 51.1804C240.223 51.107 239.915 51.0703 239.559 51.0703C238.256 51.0703 237.605 51.7553 237.605 53.1254V57.9449H235.7V52.5749H235.688Z" fill="white"/>
<path d="M199.891 69.6636C199.964 69.7248 200.112 69.786 200.308 69.8838C200.505 69.9694 200.751 70.0673 201.046 70.1529C201.341 70.2508 201.672 70.3242 202.053 70.3976C202.434 70.4587 202.84 70.4954 203.295 70.4954C203.872 70.4954 204.351 70.422 204.72 70.2753C205.089 70.1285 205.273 69.8716 205.273 69.5046C205.273 69.1988 205.162 68.9542 204.917 68.7951C204.683 68.6361 204.265 68.526 203.663 68.4526L202.361 68.3058C201.918 68.2569 201.5 68.1835 201.132 68.0612C200.763 67.9389 200.444 67.7921 200.173 67.5841C199.903 67.3884 199.694 67.1438 199.546 66.8502C199.399 66.5566 199.325 66.2019 199.325 65.7982C199.325 65.4434 199.399 65.1132 199.534 64.7951C199.669 64.4771 199.891 64.1957 200.198 63.9511C200.493 63.7064 200.886 63.5107 201.377 63.3762C201.857 63.2416 202.447 63.1682 203.135 63.1682C204.29 63.1682 205.187 63.2905 205.826 63.5474C206.465 63.8043 206.785 64.1346 206.785 64.5505C206.785 64.685 206.76 64.7951 206.711 64.9052C206.662 65.0031 206.6 65.0887 206.539 65.1743C206.477 65.2477 206.416 65.3211 206.342 65.37C206.281 65.419 206.232 65.4557 206.195 65.4557C206.146 65.4067 206.047 65.3456 205.9 65.2477C205.752 65.1499 205.543 65.0642 205.285 64.9664C205.027 64.8685 204.72 64.7829 204.364 64.7217C204.007 64.6483 203.602 64.6116 203.122 64.6116C201.832 64.6116 201.181 64.9541 201.181 65.6269C201.181 65.9205 201.304 66.1285 201.55 66.2875C201.795 66.4343 202.139 66.5444 202.606 66.5933L204.315 66.8135C205.236 66.9358 205.961 67.1927 206.465 67.5719C206.981 67.9511 207.227 68.5138 207.227 69.26C207.227 70.0918 206.895 70.7523 206.232 71.2538C205.568 71.7554 204.609 72 203.368 72C202.766 72 202.225 71.9511 201.734 71.8655C201.242 71.7798 200.812 71.6697 200.456 71.5597C200.099 71.4373 199.805 71.3272 199.583 71.2171C199.362 71.1071 199.215 71.0214 199.153 70.9725L199.891 69.6636Z" fill="white"/>
<path d="M216.394 71.7064C216.284 71.7309 216.112 71.7554 215.866 71.7798C215.62 71.8043 215.35 71.841 215.018 71.8655C214.699 71.8899 214.33 71.9144 213.937 71.9389C213.531 71.9633 213.113 71.9756 212.683 71.9756C211.811 71.9756 211.11 71.9022 210.557 71.7554C210.004 71.6086 209.574 71.4006 209.255 71.156C208.935 70.9113 208.726 70.6178 208.603 70.2875C208.48 69.9572 208.431 69.6269 208.431 69.2844C208.431 68.8318 208.505 68.4282 208.64 68.0856C208.775 67.7431 209.009 67.4496 209.328 67.2171C209.648 66.9847 210.066 66.8135 210.57 66.6912C211.086 66.5688 211.7 66.5199 212.437 66.5199C212.855 66.5199 213.261 66.5321 213.642 66.5566C214.023 66.5811 214.305 66.6055 214.49 66.63C214.49 66.2386 214.428 65.9205 214.293 65.6636C214.17 65.4067 213.986 65.211 213.765 65.0642C213.543 64.9174 213.273 64.8196 212.966 64.7707C212.659 64.7095 212.315 64.685 211.934 64.685C211.295 64.685 210.791 64.7584 210.41 64.9052C210.029 65.052 209.771 65.1743 209.648 65.2722C209.586 65.211 209.488 65.1132 209.378 64.9541C209.255 64.7951 209.205 64.6116 209.205 64.3915C209.205 64.2324 209.242 64.0856 209.328 63.9389C209.414 63.7921 209.562 63.6575 209.771 63.5352C209.98 63.4251 210.262 63.3272 210.619 63.2661C210.975 63.2049 211.43 63.1682 211.97 63.1682C212.622 63.1682 213.224 63.2294 213.765 63.3639C214.305 63.4863 214.772 63.6942 215.153 63.9756C215.547 64.2569 215.841 64.6239 216.063 65.0765C216.284 65.5291 216.394 66.0795 216.394 66.7278V71.7064ZM214.502 68.0122C214.391 67.9878 214.182 67.9511 213.875 67.9144C213.568 67.8655 213.113 67.8532 212.499 67.8532C211.737 67.8532 211.196 67.9633 210.852 68.1957C210.508 68.4282 210.336 68.7829 210.336 69.2722C210.336 69.4679 210.373 69.6514 210.447 69.8227C210.52 69.9939 210.643 70.1285 210.828 70.2508C211 70.3731 211.245 70.4587 211.553 70.5199C211.86 70.5811 212.241 70.6178 212.696 70.6178C213.212 70.6178 213.617 70.5933 213.912 70.5566C214.207 70.5199 214.416 70.4832 214.514 70.4587V68.0122H214.502Z" fill="white"/>
<path d="M218.422 60.3669C218.422 60.0734 218.508 59.8409 218.692 59.7064C218.865 59.5596 219.123 59.4862 219.442 59.4862C219.639 59.4862 219.823 59.5107 219.995 59.5596C220.167 59.6085 220.278 59.6452 220.327 59.6697V71.7309H218.422V60.3669Z" fill="white"/>
<path d="M229.826 71.1193C229.74 71.1804 229.593 71.2538 229.408 71.3517C229.224 71.4496 228.978 71.5474 228.696 71.633C228.413 71.7187 228.081 71.8043 227.713 71.8655C227.344 71.9266 226.926 71.9633 226.484 71.9633C225.857 71.9633 225.279 71.8655 224.739 71.682C224.198 71.4985 223.731 71.2171 223.325 70.8379C222.92 70.471 222.6 70.0184 222.367 69.4801C222.133 68.9419 222.01 68.3303 222.01 67.6208C222.01 66.9603 222.121 66.3486 222.355 65.7982C222.588 65.2477 222.895 64.7829 223.301 64.3914C223.706 64 224.186 63.6942 224.739 63.474C225.292 63.2538 225.894 63.1437 226.545 63.1437C227.123 63.1437 227.639 63.2171 228.081 63.3639C228.524 63.5107 228.905 63.7187 229.212 63.9633C229.519 64.208 229.752 64.5015 229.9 64.8318C230.06 65.1621 230.133 65.5168 230.133 65.896C230.133 66.2875 230.06 66.63 229.912 66.948C229.765 67.2661 229.507 67.5352 229.138 67.7676C228.769 68 228.278 68.1713 227.651 68.3058C227.024 68.4281 226.238 68.5015 225.279 68.5015C225.058 68.5015 224.849 68.5015 224.653 68.4893C224.456 68.4771 224.247 68.4771 224.026 68.4648C224.112 69.0275 224.395 69.4924 224.849 69.8349C225.304 70.1774 225.968 70.3609 226.828 70.3609C227.123 70.3609 227.381 70.3364 227.626 70.2997C227.872 70.2508 228.093 70.2018 228.29 70.1285C228.487 70.0673 228.646 69.9939 228.794 69.9327C228.929 69.8716 229.04 69.8104 229.101 69.7859L229.826 71.1193ZM223.964 67.1804C224.222 67.1927 224.468 67.1927 224.702 67.1927C224.935 67.1927 225.169 67.1927 225.402 67.1927C226.017 67.1927 226.508 67.156 226.889 67.0703C227.27 66.997 227.565 66.8991 227.774 66.7768C227.983 66.6544 228.13 66.5199 228.192 66.3609C228.253 66.2018 228.29 66.0428 228.29 65.8838C228.29 65.4679 228.118 65.1499 227.786 64.9419C227.442 64.734 227.024 64.6239 226.521 64.6239C226.103 64.6239 225.746 64.6973 225.439 64.844C225.132 64.9908 224.862 65.1743 224.653 65.419C224.444 65.6636 224.272 65.9327 224.161 66.2385C224.038 66.5444 223.977 66.8624 223.964 67.1804Z" fill="white"/>
<path d="M231.78 69.6636C231.854 69.7248 232.001 69.786 232.198 69.8838C232.395 69.9694 232.64 70.0673 232.935 70.1529C233.23 70.2508 233.562 70.3242 233.943 70.3976C234.324 70.4587 234.73 70.4954 235.184 70.4954C235.762 70.4954 236.241 70.422 236.61 70.2753C236.978 70.1285 237.163 69.8716 237.163 69.5046C237.163 69.1988 237.052 68.9542 236.806 68.7951C236.573 68.6361 236.155 68.526 235.553 68.4526L234.25 68.3058C233.808 68.2569 233.39 68.1835 233.021 68.0612C232.653 67.9389 232.333 67.7921 232.063 67.5841C231.792 67.3884 231.584 67.1438 231.436 66.8502C231.289 66.5566 231.215 66.2019 231.215 65.7982C231.215 65.4434 231.289 65.1132 231.424 64.7951C231.559 64.4771 231.78 64.1957 232.087 63.9511C232.382 63.7064 232.776 63.5107 233.267 63.3762C233.746 63.2416 234.336 63.1682 235.024 63.1682C236.18 63.1682 237.077 63.2905 237.716 63.5474C238.355 63.8043 238.674 64.1346 238.674 64.5505C238.674 64.685 238.65 64.7951 238.6 64.9052C238.551 65.0031 238.49 65.0887 238.428 65.1743C238.367 65.2477 238.306 65.3211 238.232 65.37C238.17 65.419 238.121 65.4557 238.084 65.4557C238.035 65.4067 237.937 65.3456 237.789 65.2477C237.642 65.1499 237.433 65.0642 237.175 64.9664C236.917 64.8685 236.61 64.7829 236.253 64.7217C235.897 64.6483 235.491 64.6116 235.012 64.6116C233.722 64.6116 233.071 64.9541 233.071 65.6269C233.071 65.9205 233.193 66.1285 233.439 66.2875C233.685 66.4343 234.029 66.5444 234.496 66.5933L236.204 66.8135C237.126 66.9358 237.851 67.1927 238.355 67.5719C238.871 67.9511 239.117 68.5138 239.117 69.26C239.117 70.0918 238.785 70.7523 238.121 71.2538C237.458 71.7554 236.499 72 235.258 72C234.656 72 234.115 71.9511 233.624 71.8655C233.132 71.7798 232.702 71.6697 232.345 71.5597C231.989 71.4373 231.694 71.3272 231.473 71.2171C231.252 71.1071 231.104 71.0214 231.043 70.9725L231.78 69.6636Z" fill="white"/>
<path d="M199.473 81.737C199.473 80.9663 199.583 80.2813 199.805 79.6819C200.026 79.0948 200.333 78.5932 200.739 78.1896C201.144 77.7859 201.623 77.4801 202.189 77.2721C202.754 77.0642 203.381 76.9541 204.081 76.9541C204.72 76.9541 205.298 77.0642 205.838 77.2844C206.367 77.5046 206.834 77.8104 207.227 78.2018C207.62 78.5932 207.928 79.0581 208.149 79.5963C208.37 80.1345 208.48 80.7217 208.48 81.3578C208.48 82.0061 208.37 82.5932 208.161 83.1315C207.94 83.6697 207.645 84.1345 207.264 84.5137C206.883 84.9052 206.428 85.1988 205.912 85.4189C205.396 85.6391 204.831 85.7492 204.216 85.7492C203.577 85.7492 203.024 85.6269 202.533 85.3822C202.041 85.1376 201.66 84.844 201.378 84.4893V88.8562H199.473V81.737ZM203.946 84.0734C204.327 84.0734 204.671 84 204.99 83.8654C205.31 83.7309 205.58 83.5351 205.814 83.2905C206.047 83.0458 206.219 82.7523 206.342 82.422C206.465 82.0917 206.527 81.7247 206.527 81.3455C206.527 80.9663 206.465 80.6116 206.342 80.2936C206.219 79.9633 206.047 79.6819 205.814 79.4495C205.58 79.2049 205.31 79.0214 204.99 78.8868C204.671 78.7523 204.327 78.6789 203.946 78.6789C203.565 78.6789 203.221 78.74 202.901 78.8746C202.582 79.0092 202.311 79.1926 202.078 79.4251C201.845 79.6575 201.672 79.9388 201.55 80.2691C201.427 80.5994 201.353 80.9541 201.353 81.3578C201.353 81.7492 201.414 82.104 201.55 82.4342C201.672 82.7645 201.857 83.0581 202.078 83.3027C202.299 83.5474 202.57 83.7431 202.889 83.8777C203.209 84 203.565 84.0734 203.946 84.0734Z" fill="white"/>
<path d="M210.189 74.1652C210.189 73.8716 210.275 73.6392 210.459 73.5046C210.631 73.3578 210.889 73.2844 211.209 73.2844C211.405 73.2844 211.59 73.3089 211.762 73.3578C211.934 73.4067 212.044 73.4434 212.093 73.4679V85.5291H210.189V74.1652Z" fill="white"/>
<path d="M221.679 85.4924C221.568 85.5168 221.396 85.5413 221.15 85.5657C220.905 85.5902 220.634 85.6269 220.302 85.6514C219.983 85.6758 219.614 85.7003 219.221 85.7248C218.815 85.7492 218.398 85.7615 217.968 85.7615C217.095 85.7615 216.395 85.6881 215.842 85.5413C215.289 85.3945 214.858 85.1865 214.539 84.9419C214.219 84.6972 214.011 84.4037 213.888 84.0734C213.765 83.7431 213.716 83.4128 213.716 83.0703C213.716 82.6177 213.789 82.2141 213.924 81.8716C214.06 81.529 214.293 81.2355 214.613 81.0031C214.932 80.7706 215.35 80.5994 215.854 80.4771C216.37 80.367 216.984 80.3058 217.722 80.3058C218.14 80.3058 218.545 80.318 218.926 80.3425C219.307 80.367 219.59 80.3914 219.774 80.4159C219.774 80.0245 219.713 79.7064 219.577 79.4495C219.454 79.1927 219.27 78.9969 219.049 78.8501C218.828 78.7034 218.557 78.6055 218.25 78.5566C217.943 78.4954 217.599 78.4709 217.218 78.4709C216.579 78.4709 216.075 78.5443 215.694 78.6911C215.313 78.8379 215.055 78.9602 214.932 79.0581C214.871 78.9969 214.772 78.8991 214.662 78.7401C214.539 78.581 214.49 78.3976 214.49 78.1774C214.49 78.0183 214.527 77.8716 214.613 77.7248C214.699 77.578 214.846 77.4434 215.055 77.3211C215.264 77.1988 215.547 77.1131 215.903 77.0398C216.259 76.9786 216.714 76.9419 217.255 76.9419C217.906 76.9419 218.508 77.0031 219.049 77.1376C219.59 77.2599 220.057 77.4679 220.438 77.7492C220.831 78.0306 221.126 78.3975 221.347 78.8501C221.568 79.3027 221.679 79.8532 221.679 80.4893V85.4924ZM219.799 81.8104C219.688 81.7859 219.479 81.7492 219.172 81.7125C218.865 81.6636 218.41 81.6514 217.795 81.6514C217.034 81.6514 216.493 81.7615 216.149 81.9939C215.805 82.2263 215.633 82.581 215.633 83.0703C215.633 83.2661 215.669 83.4495 215.743 83.6208C215.817 83.792 215.94 83.9266 216.124 84.0489C216.296 84.159 216.542 84.2569 216.849 84.318C217.156 84.3792 217.537 84.4037 217.992 84.4037C218.508 84.4037 218.914 84.3914 219.209 84.3425C219.504 84.2936 219.713 84.2691 219.811 84.2446V81.8104H219.799Z" fill="white"/>
<path d="M223.682 75.7064C223.682 75.4006 223.768 75.1682 223.952 75.0336C224.124 74.8991 224.37 74.8257 224.689 74.8257C224.886 74.8257 225.07 74.8502 225.255 74.8991C225.427 74.948 225.537 74.9847 225.599 75.0092V77.1865H228.02C228.388 77.1865 228.646 77.2599 228.794 77.4067C228.941 77.5535 229.015 77.7737 229.015 78.0673C229.015 78.2508 228.991 78.4342 228.929 78.5933C228.868 78.7523 228.831 78.8624 228.794 78.9358H225.587V82.6422C225.587 82.9358 225.623 83.1682 225.709 83.3517C225.783 83.5352 225.894 83.682 226.029 83.792C226.164 83.9021 226.324 83.9755 226.508 84.0245C226.693 84.0734 226.889 84.0856 227.086 84.0856C227.405 84.0856 227.712 84.0367 227.983 83.9388C228.265 83.841 228.462 83.7431 228.585 83.6575L229.347 84.9174C229.261 84.9786 229.138 85.0642 228.966 85.1621C228.794 85.2599 228.61 85.3578 228.376 85.4434C228.143 85.529 227.885 85.6024 227.59 85.6636C227.295 85.7248 226.987 85.7615 226.643 85.7615C225.66 85.7615 224.923 85.5046 224.419 85.0031C223.915 84.5015 223.669 83.841 223.669 83.0214V75.7064H223.682Z" fill="white"/>
<path d="M230.06 76.6728C230.06 76.0734 230.146 75.5597 230.306 75.1315C230.478 74.7034 230.711 74.3486 231.018 74.0795C231.325 73.8104 231.682 73.6147 232.1 73.4801C232.517 73.3578 232.972 73.2844 233.476 73.2844C234.385 73.2844 235.037 73.3945 235.418 73.6025C235.799 73.8226 235.983 74.0918 235.983 74.422C235.983 74.6055 235.934 74.7768 235.823 74.9236C235.713 75.0704 235.602 75.1804 235.479 75.2538C235.295 75.1071 235.061 74.997 234.754 74.8991C234.447 74.8135 234.127 74.7645 233.771 74.7645C233.12 74.7645 232.64 74.9358 232.37 75.2661C232.087 75.5963 231.952 76.0734 231.952 76.685V77.1866H234.459C234.828 77.1866 235.086 77.26 235.233 77.4067C235.381 77.5535 235.455 77.7737 235.455 78.0673C235.455 78.2508 235.43 78.4343 235.369 78.5933C235.307 78.7523 235.27 78.8624 235.233 78.9358H231.94V85.5291H230.035V76.6728H230.06Z" fill="white"/>
<path d="M240.284 76.9541C240.935 76.9541 241.537 77.0642 242.09 77.2844C242.656 77.5046 243.135 77.8104 243.553 78.2018C243.958 78.5932 244.29 79.0581 244.524 79.5963C244.757 80.1345 244.88 80.7217 244.88 81.3455C244.88 81.9694 244.757 82.5443 244.524 83.0825C244.29 83.6208 243.971 84.0856 243.553 84.477C243.135 84.8685 242.656 85.1743 242.09 85.4067C241.525 85.6391 240.923 85.7492 240.284 85.7492C239.633 85.7492 239.031 85.6391 238.478 85.4067C237.912 85.1743 237.433 84.8685 237.015 84.477C236.597 84.0856 236.278 83.6208 236.044 83.0825C235.811 82.5443 235.688 81.9694 235.688 81.3455C235.688 80.7095 235.811 80.1345 236.044 79.5963C236.278 79.0581 236.597 78.5932 237.015 78.2018C237.433 77.8104 237.912 77.5046 238.478 77.2844C239.031 77.0642 239.633 76.9541 240.284 76.9541ZM240.284 84.0856C240.665 84.0856 241.009 84.0122 241.341 83.8777C241.66 83.7431 241.943 83.5474 242.164 83.2905C242.398 83.0458 242.57 82.7523 242.705 82.422C242.828 82.0917 242.902 81.737 242.902 81.3455C242.902 80.9541 242.84 80.5994 242.705 80.2569C242.582 79.9143 242.398 79.633 242.164 79.3884C241.931 79.1437 241.66 78.948 241.341 78.8134C241.021 78.6789 240.665 78.6055 240.284 78.6055C239.891 78.6055 239.547 78.6789 239.227 78.8134C238.908 78.948 238.637 79.1437 238.404 79.3884C238.17 79.633 237.998 79.9266 237.875 80.2569C237.753 80.5994 237.679 80.9541 237.679 81.3455C237.679 81.737 237.74 82.0917 237.875 82.422C237.998 82.7523 238.183 83.0336 238.404 83.2905C238.625 83.5474 238.908 83.7309 239.227 83.8777C239.534 84.0122 239.891 84.0856 240.284 84.0856Z" fill="white"/>
<path d="M246.478 80.159C246.478 79.1437 246.797 78.3486 247.424 77.7859C248.051 77.2232 248.923 76.9419 250.041 76.9419C250.742 76.9419 251.319 77.0398 251.75 77.2355C252.192 77.4312 252.413 77.7248 252.413 78.1284C252.413 78.3119 252.364 78.4954 252.253 78.6789C252.143 78.8501 252.057 78.9725 251.995 79.0092C251.811 78.9235 251.578 78.8379 251.295 78.7645C251.012 78.6911 250.705 78.6544 250.349 78.6544C249.046 78.6544 248.395 79.3395 248.395 80.7095V85.529H246.49V80.159H246.478Z" fill="white"/>
<path d="M253.421 80.159C253.421 79.633 253.519 79.1682 253.703 78.7645C253.888 78.3608 254.146 78.0306 254.478 77.7737C254.809 77.5046 255.19 77.3088 255.633 77.1621C256.075 77.0275 256.567 76.9541 257.083 76.9541C257.771 76.9541 258.386 77.0764 258.939 77.3333C259.479 77.5902 259.922 77.9694 260.241 78.4587C260.561 77.9572 260.991 77.578 261.531 77.3333C262.06 77.0764 262.674 76.9541 263.35 76.9541C263.866 76.9541 264.346 77.0153 264.788 77.1498C265.23 77.2844 265.611 77.4801 265.943 77.7492C266.263 78.0183 266.521 78.3486 266.705 78.7523C266.889 79.1559 266.988 79.6208 266.988 80.1468V85.529H265.083V80.7951C265.083 80.0367 264.911 79.4862 264.567 79.1559C264.223 78.8257 263.756 78.6666 263.166 78.6666C262.601 78.6666 262.121 78.8501 261.74 79.2171C261.359 79.5841 261.163 80.1712 261.163 80.9908V85.529H259.258V80.9908C259.258 80.1712 259.061 79.5718 258.68 79.2171C258.3 78.8501 257.82 78.6666 257.255 78.6666C256.677 78.6666 256.21 78.8379 255.854 79.1682C255.498 79.4984 255.313 80.0489 255.313 80.8195V85.5413H253.409V80.159H253.421Z" fill="white"/>
<path d="M170.864 47.6697V86.4465" stroke="white" stroke-miterlimit="10" stroke-linecap="round" stroke-linejoin="round"/>
</g>
<defs>
<linearGradient id="paint0_linear" x1="34.0476" y1="26.0339" x2="170.867" y2="26.0339" gradientUnits="userSpaceOnUse">
<stop stop-color="#0659ED"/>
<stop offset="1" stop-color="#DD0B97"/>
</linearGradient>
<clipPath id="clip0">
<rect width="267" height="100" fill="white"/>
</clipPath>
</defs>
</svg>